Coordinates
version=1
nRows=24
nColumns=24
inDegrees=yes

Units are S.I. units (second, meters, Newtons, ...)
Angles are in degrees.

endheader
time	pelvis_tilt	pelvis_list	pelvis_rotation	pelvis_tx	pelvis_ty	pelvis_tz	hip_flexion_r	hip_adduction_r	hip_rotation_r	knee_angle_r	ankle_angle_r	subtalar_angle_r	mtp_angle_r	hip_flexion_l	hip_adduction_l	hip_rotation_l	knee_angle_l	ankle_angle_l	subtalar_angle_l	mtp_angle_l	lumbar_extension	lumbar_bending	lumbar_rotation
      3.30000000	      0.63840937	     12.06880922	     -5.43964980	      0.50295875	      0.97550489	     -0.02352813	      3.13507252	    -14.04858853	     -2.19876321	    -41.11972006	      4.74491958	     -7.83295895	     26.71449031	     18.77528513	     11.77756380	    -19.03101822	    -11.09794126	     -5.39347494	     -1.83420984	     45.46036004	    -14.37351855	    -16.39486783	     34.66205066
      3.30500000	      0.55817213	     12.25455394	     -5.38616999	      0.50778567	      0.97552708	     -0.02433312	      4.09663783	    -14.32447262	     -1.86136376	    -42.87063568	      3.63843571	     -8.09266739	     28.61649796	     18.83255563	     11.99725477	    -18.91023057	    -11.54158646	     -5.07673869	     -1.89151298	     44.64360665	    -14.28454714	    -16.59685350	     34.46376305
      3.31000000	      0.64072845	     12.43095765	     -5.29825524	      0.51273143	      0.97580773	     -0.02521648	      4.82237383	    -14.61139543	     -1.63486880	    -44.50679199	      2.51248153	     -8.46230625	     30.20695750	     18.65466455	     12.27457547	    -18.67159099	    -11.88129722	     -4.81601650	     -2.15097893	     43.90377360	    -14.37664656	    -16.78194942	     34.36745696
      3.31500000	      0.66226911	     12.59533032	     -5.15731329	      0.51765232	      0.97599482	     -0.02623291	      5.60986254	    -14.89211869	     -1.44827143	    -46.13056571	      1.63201550	     -8.53271503	     30.77011177	     18.52082863	     12.56037766	    -18.38262883	    -12.18443247	     -4.60356797	     -2.51851763	     43.57799893	    -14.41469382	    -16.92692845	     34.12959379
      3.32000000	      0.66027790	     12.77311063	     -5.04192061	      0.52252635	      0.97613630	     -0.02715495	      6.44558560	    -15.17197736	     -1.22150809	    -47.71051202	      0.73844643	     -8.64999831	     31.81886099	     18.38877882	     12.84335506	    -18.21213518	    -12.44024053	     -4.36861628	     -2.67830294	     42.99134375	    -14.41779320	    -17.09870726	     33.92690412
      3.32500000	      0.81406953	     12.91452725	     -4.92028714	      0.52753320	      0.97656076	     -0.02805195	      7.03172902	    -15.42406441	     -1.05881865	    -49.12443367	     -0.10626941	     -8.82557424	     33.44919815	     18.02699683	     13.12083505	    -18.04802833	    -12.62084730	     -4.00372413	     -2.61032473	     42.10626549	    -14.59383382	    -17.23056776	     33.61880751
      3.33000000	      0.91155136	     13.08302611	     -4.76965414	      0.53246231	      0.97687854	     -0.02905823	      7.69557894	    -15.71876717	     -0.92699126	    -50.53799300	     -0.63007907	     -8.69919902	     33.85751579	     17.70748413	     13.44278811	    -17.83502272	    -12.74039580	     -3.79777177	     -2.77673272	     41.85026756	    -14.71396046	    -17.37363814	     33.33562469
      3.33500000	      1.07377169	     13.22332831	     -4.65831019	      0.53740999	      0.97733960	     -0.02992464	      8.26161819	    -15.95803433	     -0.76207142	    -51.83572406	     -1.03812277	     -8.69668316	     34.06718313	     17.27625503	     13.72830889	    -17.70686855	    -12.79122118	     -3.57278350	     -2.76005669	     41.71815575	    -14.89925656	    -17.49968834	     32.99445899
      3.34000000	      1.07344161	     13.33159781	     -4.53490112	      0.54216153	      0.97755596	     -0.03082594	      9.03182263	    -16.14035873	     -0.56257504	    -53.08762614	     -1.51092406	     -8.76954022	     35.62910350	     17.04449429	     13.96098581	    -17.54009205	    -12.89494275	     -3.21238749	     -2.74664722	     40.56590829	    -14.90629116	    -17.57850231	     32.78970494
      3.34500000	      1.26229312	     13.44700844	     -4.42451436	      0.54705036	      0.97809714	     -0.03168304	      9.52897975	    -16.35663720	     -0.44099088	    -54.21386827	     -1.59459402	     -8.60793599	     35.76577968	     16.54741700	     14.22950216	    -17.41019422	    -12.88542964	     -2.99354271	     -2.72296873	     40.50246289	    -15.12088479	    -17.67071857	     32.47277109
      3.35000000	      1.31332936	     13.54072984	     -4.33187086	      0.55178100	      0.97844198	     -0.03254628	     10.20778609	    -16.51920904	     -0.24906582	    -55.28998047	     -1.69255930	     -8.53217598	     36.74428001	     16.21033491	     14.45868085	    -17.23187317	    -12.88853211	     -2.69338682	     -2.73677070	     39.54312154	    -15.17520273	    -17.73126548	     32.26504470
      3.35500000	      1.46417195	     13.61543976	     -4.25567076	      0.55656165	      0.97899913	     -0.03331421	     10.73050549	    -16.66084672	     -0.09455015	    -56.24666310	     -1.55159653	     -8.36875373	     36.89005740	     15.72905946	     14.67084428	    -17.10425428	    -12.82802145	     -2.48422973	     -2.67549265	     39.45105735	    -15.33927310	    -17.78085715	     32.00196389
      3.36000000	      1.58109934	     13.68980219	     -4.20524532	      0.56124783	      0.97950077	     -0.03404250	     11.30508576	    -16.78673216	      0.09085192	    -57.14327695	     -1.32173854	     -8.21319784	     37.08320741	     15.29239390	     14.87249858	    -16.96970133	    -12.76761131	     -2.27737774	     -2.68777626	     39.24513945	    -15.46218168	    -17.83315635	     31.77373788
      3.36500000	      1.58641919	     13.73660446	     -4.16364683	      0.56574359	      0.97983833	     -0.03472862	     12.02873754	    -16.84775620	      0.31907263	    -57.99234542	     -1.10917469	     -8.20308456	     37.67652706	     15.02105153	     15.01833513	    -16.83222983	    -12.79397979	     -1.92961526	     -2.64691136	     38.05204479	    -15.46358269	    -17.85535375	     31.64610409
      3.37000000	      1.70834798	     13.77536428	     -4.14366149	      0.57033599	      0.98040688	     -0.03536612	     12.57391604	    -16.91132838	      0.50487393	    -58.71264624	     -0.71612776	     -8.10041330	     37.88994005	     14.58491175	     15.17012758	    -16.69526737	    -12.74989491	     -1.66826104	     -2.59420489	     37.35983400	    -15.58550657	    -17.87288336	     31.50003392
      3.37500000	      1.80809806	     13.79998602	     -4.12975436	      0.57485812	      0.98095943	     -0.03597225	     13.13926970	    -16.94487831	      0.69411486	    -59.35991845	     -0.27223449	     -8.01939586	     37.96296610	     14.18163220	     15.29715946	    -16.56764391	    -12.71324130	     -1.47304215	     -2.58228049	     37.27507096	    -15.68679793	    -17.87487008	     31.32739589
      3.38000000	      1.78254706	     13.81920109	     -4.13440552	      0.57924544	      0.98130370	     -0.03650590	     13.87546015	    -16.93189167	      0.94129891	    -59.97698303	      0.21408495	     -8.00640605	     37.90613144	     13.95233572	     15.39006199	    -16.44384873	    -12.74098513	     -1.18190831	     -2.57787622	     36.39864127	    -15.64112600	    -17.87979210	     31.25610841
      3.38500000	      1.87903510	     13.82751026	     -4.14260247	      0.58372444	      0.98188099	     -0.03704958	     14.42213933	    -16.93218908	      1.12073661	    -60.46336712	      0.76298260	     -7.92227263	     37.94479785	     13.56042571	     15.49076320	    -16.30719113	    -12.71893949	     -0.97962122	     -2.58670706	     36.25377075	    -15.72966136	    -17.86891553	     31.15574423
      3.39000000	      1.97420185	     13.78864777	     -4.14134830	      0.58814529	      0.98248179	     -0.03752437	     14.94131781	    -16.85804958	      1.27167809	    -60.85501369	      1.28002675	     -8.05793996	     37.97088526	     13.18443235	     15.53293661	    -16.16452655	    -12.73823314	     -0.76274361	     -2.62010511	     36.19737899	    -15.82336205	    -17.81063551	     31.08546675
      3.39500000	      1.79672080	     13.82205424	     -4.17111648	      0.59233591	      0.98257219	     -0.03803596	     15.87436277	    -16.81751865	      1.57025687	    -61.31722769	      1.87494699	     -7.96906918	     37.52816293	     13.18074844	     15.60661751	    -16.05761123	    -12.85812574	     -0.43591774	     -2.64154564	     35.03432906	    -15.60103072	    -17.82617056	     31.13321831
      3.40000000	      1.88584645	     13.80856892	     -4.18467220	      0.59674374	      0.98315356	     -0.03849566	     16.38835038	    -16.76640524	      1.72310749	    -61.58304038	      2.55482522	     -7.88920870	     36.87838932	     12.82587080	     15.66355978	    -15.95521459	    -12.91389247	     -0.10587406	     -2.46728036	     33.78232860	    -15.68383369	    -17.79560227	     31.02881676
      3.40500000	      1.90304754	     13.79043036	     -4.17674428	      0.60108026	      0.98362296	     -0.03897857	     16.97859117	    -16.69989952	      1.86324459	    -61.78811495	      3.12978074	     -7.92632637	     36.85082444	     12.56763310	     15.70549392	    -15.85938588	    -12.99288707	      0.09319814	     -2.43288756	     33.68483787	    -15.69303514	    -17.75182992	     30.92738407
      3.41000000	      1.96251203	     13.74089118	     -4.17553857	      0.60545922	      0.98417918	     -0.03943316	     17.48360764	    -16.59814350	      1.96541292	    -61.88804511	      3.66596643	     -8.08847460	     36.84856867	     12.24720946	     15.72019697	    -15.76365068	    -13.05223227	      0.27749567	     -2.45258339	     33.64176527	    -15.74322310	    -17.67611494	     30.88165209
      3.41500000	      1.84865406	     13.71490290	     -4.16069469	      0.60969050	      0.98441024	     -0.03990457	     18.22278088	    -16.48929128	      2.13173021	    -62.01312679	      4.35755288	     -7.95381271	     35.55765513	     12.16754267	     15.72573013	    -15.70264430	    -13.21853593	      0.68110241	     -2.23875777	     32.06582972	    -15.60277315	    -17.62037487	     30.86029308
